name analog
datacolumns 19
datarows 28
range 0.0 0.0135
endheader
time	ground_force_vx	ground_force_vy	ground_force_vz	ground_force_px	ground_force_py	ground_force_pz	l_ground_force_vx	l_ground_force_vy	l_ground_force_vz	l_ground_force_px	l_ground_force_py	l_ground_force_pz	ground_torque_x	ground_torque_y	ground_torque_z	l_ground_torque_x	l_ground_torque_y	l_ground_torque_z
0.0	-0.0	-0.0	-0.0	17.23271942138672	18.34955406188965	-221.0010223388672	-14.795320510864258	-21.1281795501709	-279.0789489746094	-0.0	-0.0	-0.0	-0.0	-0.0	-0.0	92680.046875	-4293.197265625	-5085.84716796875
0.0005	-0.0	-0.0	-0.0	17.466012954711914	17.632436752319336	-221.7665252685547	-14.794939041137695	-21.20507431030273	-279.3523864746094	-0.0	-0.0	-0.0	-0.0	-0.0	-0.0	92463.1328125	-4359.00390625	-5035.73876953125
0.001	-0.0	-0.0	-0.0	17.84601593017578	17.0512752532959	-220.9976806640625	-14.552584648132324	-21.53449821472168	-278.97216796875	-0.0	-0.0	-0.0	-0.0	-0.0	-0.0	91976.6640625	-4464.7607421875	-5000.7216796875
0.0015	-0.0	-0.0	-0.0	17.501222610473633	17.71701431274414	-221.04324340820312	-13.952152252197266	-21.51788902282715	-278.5585327148437	-0.0	-0.0	-0.0	-0.0	-0.0	-0.0	91783.71875	-4387.06396484375	-4830.54345703125
0.002	-0.0	-0.0	-0.0	17.752891540527344	17.55464744567871	-219.4208221435547	-14.142340660095217	-21.8955192565918	-277.5265808105469	-0.0	-0.0	-0.0	-0.0	-0.0	-0.0	91857.78125	-4611.779296875	-4823.96728515625
0.0025	-0.0	-0.0	-0.0	17.42884635925293	17.12122917175293	-219.7428436279297	-14.08820915222168	-21.630447387695312	-277.2098388671875	-0.0	-0.0	-0.0	-0.0	-0.0	-0.0	91846.1015625	-4858.12109375	-4825.302734375
0.003	-0.0	-0.0	-0.0	18.40242958068848	17.287124633789062	-219.004638671875	-13.936150550842283	-21.55049133300781	-277.5755615234375	-0.0	-0.0	-0.0	-0.0	-0.0	-0.0	91644.0625	-5013.26806640625	-4932.46240234375
0.0035	-0.0	-0.0	-0.0	19.06984138488769	17.461084365844727	-216.1964874267578	-14.10501480102539	-21.537521362304688	-277.9075927734375	-0.0	-0.0	-0.0	-0.0	-0.0	-0.0	91822.390625	-5354.59521484375	-4733.5361328125
0.004	-0.0	-0.0	-0.0	18.827714920043945	17.724071502685547	-215.23968505859372	-14.011906623840332	-21.895021438598636	-278.2392578125	-0.0	-0.0	-0.0	-0.0	-0.0	-0.0	91990.6640625	-5474.2490234375	-4617.8642578125
0.0045000000000000005	-0.0	-0.0	-0.0	18.283781051635746	17.224014282226562	-217.2229766845703	-13.661460876464844	-21.48443984985352	-279.7056884765625	-0.0	-0.0	-0.0	-0.0	-0.0	-0.0	92223.1875	-5754.16064453125	-4586.4267578125
0.005	-0.0	-0.0	-0.0	17.570032119750977	17.01060676574707	-215.4748992919922	-13.647849082946776	-21.792869567871094	-278.2917175292969	-0.0	-0.0	-0.0	-0.0	-0.0	-0.0	92833.359375	-6369.984375	-4617.7197265625
0.0055	-0.0	-0.0	-0.0	17.21311378479004	16.409015655517578	-216.49929809570312	-13.240979194641112	-21.183422088623047	-279.35760498046875	-0.0	-0.0	-0.0	-0.0	-0.0	-0.0	92925.53125	-6879.58984375	-4495.61083984375
0.006	-0.0	-0.0	-0.0	16.320953369140625	16.498254776000977	-216.8886566162109	-12.867732048034668	-21.55978775024414	-281.37945556640625	-0.0	-0.0	-0.0	-0.0	-0.0	-0.0	93197.8203125	-7035.94482421875	-4462.6728515625
0.006500000000000001	-0.0	-0.0	-0.0	15.54112434387207	16.404613494873047	-219.2698211669922	-12.438400268554688	-21.20660781860352	-281.41619873046875	-0.0	-0.0	-0.0	-0.0	-0.0	-0.0	93515.1484375	-7254.13916015625	-4176.67333984375
0.007	-0.0	-0.0	-0.0	14.827750205993652	16.156089782714844	-217.29872131347656	-11.971156120300291	-21.452611923217773	-282.0956115722656	-0.0	-0.0	-0.0	-0.0	-0.0	-0.0	93418.34375	-7693.60888671875	-4134.05419921875
0.0075	-0.0	-0.0	-0.0	14.5460786819458	16.12308120727539	-219.30587768554688	-11.53726577758789	-21.270999908447266	-282.1527709960937	-0.0	-0.0	-0.0	-0.0	-0.0	-0.0	93679.6953125	-8138.25244140625	-4016.627197265625
0.008	-0.0	-0.0	-0.0	14.184471130371094	15.968792915344238	-218.30337524414065	-11.083929061889648	-21.27083396911621	-282.2113037109375	-0.0	-0.0	-0.0	-0.0	-0.0	-0.0	93610.1875	-8901.884765625	-3739.440673828125
0.0085	-0.0	-0.0	-0.0	14.01584529876709	16.291290283203125	-217.65579223632807	-10.118024826049805	-21.280553817749023	-281.765380859375	-0.0	-0.0	-0.0	-0.0	-0.0	-0.0	93735.1171875	-9097.4052734375	-3404.3232421875
0.009000000000000001	-0.0	-0.0	-0.0	14.10022258758545	16.494081497192383	-221.0513458251953	-9.93560791015625	-20.687419891357425	-281.8052062988281	-0.0	-0.0	-0.0	-0.0	-0.0	-0.0	94017.375	-9501.1484375	-3303.337890625
0.0095	-0.0	-0.0	-0.0	14.411787986755373	16.30079460144043	-221.73715209960935	-9.132075309753418	-20.60451889038086	-283.3493957519531	-0.0	-0.0	-0.0	-0.0	-0.0	-0.0	93896.90625	-10082.8486328125	-3007.79638671875
0.01	-0.0	-0.0	-0.0	13.916839599609377	17.107948303222656	-222.2308349609375	-8.683277130126953	-20.47513008117676	-282.75152587890625	-0.0	-0.0	-0.0	-0.0	-0.0	-0.0	93939.90625	-10650.044921875	-2914.9814453125
0.0105	-0.0	-0.0	-0.0	14.352595329284668	17.563833236694336	-223.01959228515625	-7.545660972595215	-20.313987731933597	-284.41412353515625	-0.0	-0.0	-0.0	-0.0	-0.0	-0.0	93776.875	-11038.375	-2537.23046875
0.011	-0.0	-0.0	-0.0	14.268455505371094	18.266510009765625	-224.95492553710935	-7.284926891326904	-20.20977210998535	-282.484619140625	-0.0	-0.0	-0.0	-0.0	-0.0	-0.0	93944.453125	-11274.4326171875	-2409.542724609375
0.0115	-0.0	-0.0	-0.0	14.46268367767334	18.21431541442871	-224.6433868408203	-7.08070707321167	-19.695735931396484	-284.4314270019531	-0.0	-0.0	-0.0	-0.0	-0.0	-0.0	94223.4921875	-12045.357421875	-2188.11865234375
0.012	-0.0	-0.0	-0.0	14.26298999786377	18.654958724975582	-227.2997283935547	-6.58091926574707	-19.513675689697266	-282.264404296875	-0.0	-0.0	-0.0	-0.0	-0.0	-0.0	94153.765625	-12050.126953125	-2234.43994140625
0.0125	-0.0	-0.0	-0.0	14.865623474121094	18.7769718170166	-224.3551177978516	-6.475887298583984	-19.24314308166504	-283.7734375	-0.0	-0.0	-0.0	-0.0	-0.0	-0.0	94147.921875	-12334.896484375	-2173.123779296875
0.013000000000000001	-0.0	-0.0	-0.0	14.836325645446776	19.52502822875977	-226.0134735107422	-6.475887298583984	-19.331357955932617	-282.7689514160156	-0.0	-0.0	-0.0	-0.0	-0.0	-0.0	93694.0625	-12727.8173828125	-2191.61669921875
0.0135	-0.0	-0.0	-0.0	15.138018608093262	20.12127494812012	-225.7259521484375	-6.264582633972168	-18.712953567504883	-280.7401123046875	-0.0	-0.0	-0.0	-0.0	-0.0	-0.0	93609.21875	-12727.65625	-1991.0340576171875
